:SAMPLES-PER-SECOND 30
:FULLY-SPECIFIED
:DEGREES
77
root  48.8294 38.5803 -4.17183 60.8449 -86.1683 -64.4694
RightUpLeg  -19.8191 -10.9997 6.64872
RightLeg  17.3453 -2.00259 -0.120634
RightFoot  3.8763 0.751143 -5.42436
RightToes  -1.16417e-010 0 -3.6325e-017
Spine  7.17645 -3.52165 5.7896
Spine1  8.78425 -4.31479 3.21121
HEad  -14.2442 5.26024 -5.81718
LeftShoulder1  9.30672 -13.0278 -49.1491
LeftArm  -0.802584 -5.46284 -26.4474
LeftForeArm  25.3344 -27.5605 -4.5709
LeftHand  -0.244104 0.0205437 5.32207
RightShoulder  6.88624 10.4007 43.1697
RightArm  -3.72362 -13.2848 29.1835
RightForeArm  12.9726 4.50875 7.24246
RightHand  -0.856104 1.1315 -15.3249
LeftUpLeg  16.1096 11.7364 5.94397
LeftLeg  23.5743 1.36417 1.10279
LeftFoot  -15.2009 -0.246271 -10.5742
LeftToes  -1.16419e-010 -9.34044e-011 -2.32061e-011
78
root  47.338 38.6336 -4.2338 66.0453 -85.3925 -69.3126
RightUpLeg  -19.0968 -11.6365 7.6655
RightLeg  20.1475 -1.4862 -0.481547
RightFoot  -0.0511101 0.563332 -5.65808
RightToes  -1.16417e-010 0 -3.6325e-017
Spine  6.88615 -3.41794 8.10798
Spine1  8.64557 -3.76315 2.67731
HEad  -14.4389 4.91963 -5.60012
LeftShoulder1  9.34313 -13.0038 -49.4127
LeftArm  -1.27141 -1.92718 -27.0401
LeftForeArm  26.5024 -29.3569 -4.91183
LeftHand  -0.244104 0.0205437 5.32207
RightShoulder  6.9747 10.5416 43.2924
RightArm  -4.16792 -11.0505 29.45
RightForeArm  12.2523 4.11991 7.23326
RightHand  -0.920231 1.51017 -15.5782
LeftUpLeg  11.3194 9.80595 6.65812
LeftLeg  33.8485 2.92252 2.47878
LeftFoot  -5.92974 0.58216 -12.3149
LeftToes  -1.16419e-010 -9.34044e-011 -2.32061e-011
79
root  45.9424 38.6847 -4.31275 60.9523 -84.3809 -63.7078
RightUpLeg  -17.8915 -12.6374 8.0305
RightLeg  21.7587 -1.43533 -0.20304
RightFoot  -3.70716 0.307239 -4.97443
RightToes  -1.16417e-010 0 -3.6325e-017
Spine  6.76907 -3.26428 10.1131
Spine1  8.24301 -3.19197 2.4798
HEad  -14.3466 3.99822 -4.85327
LeftShoulder1  9.38902 -13.0204 -49.605
LeftArm  -0.388786 1.16708 -27.8087
LeftForeArm  26.6201 -29.9683 -5.0472
LeftHand  -0.244104 0.0205437 5.32207
RightShoulder  6.9132 10.4921 43.048
RightArm  -4.12772 -9.40264 30.0455
RightForeArm  9.84614 6.08216 7.52647
RightHand  -0.988092 1.79282 -16.0736
LeftUpLeg  4.2978 7.35982 7.00721
LeftLeg  45.1623 3.51642 4.16657
LeftFoot  5.49972 1.39884 -9.7238
LeftToes  -1.16419e-010 -9.34044e-011 -2.32061e-011
80
root  44.5945 38.7583 -4.37289 56.3811 -83.579 -58.8018
RightUpLeg  -16.1622 -12.8728 7.79267
RightLeg  22.5847 -2.00185 0.274607
RightFoot  -6.26029 0.146197 -4.25862
RightToes  -1.16417e-010 0 -3.6325e-017
Spine  6.88468 -2.83587 12.2629
Spine1  7.88553 -2.16489 1.68147
HEad  -14.1166 2.59609 -3.98184
LeftShoulder1  9.47507 -13.0767 -49.8888
LeftArm  1.28254 3.50818 -28.3489
LeftForeArm  26.6459 -29.5912 -4.9583
LeftHand  -0.244104 0.0205437 5.32207
RightShoulder  6.78324 10.3169 42.7579
RightArm  -1.85829 -8.27437 30.637
RightForeArm  4.76446 11.0349 7.58083
RightHand  -1.00724 1.77911 -16.4074
LeftUpLeg  -2.63113 5.23081 7.09242
LeftLeg  54.545 3.22081 5.33175
LeftFoot  11.3117 1.30462 -6.77811
LeftToes  -1.16419e-010 -9.34044e-011 -2.32061e-011
81
root  43.1718 39.0115 -4.43912 53.3034 -83.9431 -55.6726
RightUpLeg  -13.0476 -11.677 6.44545
RightLeg  21.6257 -3.09416 0.793397
RightFoot  -8.33832 0.0371732 -3.54681
RightToes  -1.16417e-010 0 -3.6325e-017
Spine  7.02254 -2.02421 13.3345
Spine1  7.80633 -0.789644 0.151881
HEad  -14.172 1.21196 -3.44367
LeftShoulder1  9.56026 -13.125 -50.1893
LeftArm  2.10381 6.02431 -28.407
LeftForeArm  27.1408 -29.8119 -4.98042
LeftHand  -0.244104 0.0205437 5.32207
RightShoulder  6.66022 10.14 42.5118
RightArm  3.68325 -7.13604 31.3274
RightForeArm  -3.14473 18.3964 6.25721
RightHand  -0.983958 1.54051 -16.5664
LeftUpLeg  -8.18405 4.40379 6.36975
LeftLeg  60.3208 2.89925 6.05748
LeftFoot  9.89204 0.923361 -5.23356
LeftToes  -1.16419e-010 -9.34044e-011 -2.32061e-011
82
root  41.692 39.3351 -4.52579 47.9912 -85.0717 -50.2101
RightUpLeg  -9.33921 -10.0441 4.43277
RightLeg  19.4571 -4.10993 1.57023
RightFoot  -10.3403 -0.046826 -2.63201
RightToes  -1.16417e-010 0 -3.6325e-017
Spine  7.0506 -1.14859 13.2574
Spine1  7.76835 0.482963 -1.48141
HEad  -14.5839 0.209735 -3.30991
LeftShoulder1  9.59685 -13.1627 -50.2667
LeftArm  1.28692 9.90961 -28.043
LeftForeArm  27.3477 -32.3043 -5.56395
LeftHand  -0.244104 0.0205437 5.32207
RightShoulder  6.51321 9.95679 42.1133
RightArm  4.74895 -6.0839 32.0157
RightForeArm  -6.16613 26.8215 5.87764
RightHand  -0.947831 1.09359 -17.0319
LeftUpLeg  -12.9188 4.15388 4.8606
LeftLeg  62.3776 2.6602 6.13025
LeftFoot  5.45008 0.641308 -4.57374
LeftToes  -1.16419e-010 -9.34044e-011 -2.32061e-011
83
root  40.2142 39.571 -4.61054 39.0024 -86.1281 -40.6932
RightUpLeg  -6.16068 -8.87966 2.48544
RightLeg  17.3119 -4.63838 2.61561
RightFoot  -11.7821 -0.0877472 -1.89815
RightToes  -1.16417e-010 0 -3.6325e-017
Spine  7.06743 -0.402417 13.0033
Spine1  7.28056 1.53356 -3.02694
HEad  -15.1722 -0.450905 -3.3836
LeftShoulder1  9.58154 -13.1955 -50.0897
LeftArm  -0.422817 15.3954 -27.3695
LeftForeArm  26.7553 -37.7813 -7.04548
LeftHand  -0.244104 0.0205437 5.32207
RightShoulder  6.305 9.70178 41.5131
RightArm  1.32624 -5.6535 32.6945
RightForeArm  -4.13064 36.7326 8.63753
RightHand  -0.917504 0.507777 -18.0744
LeftUpLeg  -17.4657 3.70186 3.12433
LeftLeg  61.4352 2.70344 5.96902
LeftFoot  1.9128 0.449086 -3.96424
LeftToes  -1.16419e-010 -9.34044e-011 -2.32061e-011
84
root  38.7535 39.732 -4.68592 28.2711 -87.1067 -29.2254
RightUpLeg  -3.41404 -8.19826 0.921855
RightLeg  15.2448 -4.51985 3.50426
RightFoot  -12.6184 -0.104887 -1.72315
RightToes  -1.16417e-010 0 -3.6325e-017
Spine  7.31442 0.345789 12.8829
Spine1  6.35485 2.5767 -4.72726
HEad  -15.9916 -0.937551 -3.56455
LeftShoulder1  9.51337 -13.1548 -49.8563
LeftArm  -2.19581 21.6281 -26.4226
LeftForeArm  26.6817 -45.7942 -9.64963
LeftHand  -0.244104 0.0205437 5.32207
RightShoulder  6.09719 9.42144 40.9772
RightArm  -0.647655 -5.82973 33.289
RightForeArm  -1.9188 48.1657 12.7421
RightHand  -0.840626 -0.256549 -18.9697
LeftUpLeg  -21.377 3.67104 1.51551
LeftLeg  57.7827 3.34339 6.21923
LeftFoot  -0.51602 0.319981 -3.35542
LeftToes  -1.16419e-010 -9.34044e-011 -2.32061e-011
85
root  37.2948 39.8505 -4.76664 6.22324 -88.2337 -6.47805
RightUpLeg  -0.641636 -7.95823 -0.426568
RightLeg  13.0444 -3.68679 3.96838
RightFoot  -13.5969 -0.122693 -1.58954
RightToes  -1.16417e-010 0 -3.6325e-017
Spine  7.76878 1.20758 12.4581
Spine1  5.50407 3.70995 -6.5378
HEad  -17.1161 -1.40151 -3.85924
LeftShoulder1  9.35556 -12.9715 -49.5746
LeftArm  -4.13458 27.6531 -25.5423
LeftForeArm  29.0312 -55.0275 -13.6883
LeftHand  -0.244104 0.0205437 5.32207
RightShoulder  5.98874 9.25054 40.7717
RightArm  -1.68238 -6.0191 33.4837
RightForeArm  3.26526 59.242 19.1
RightHand  -0.620991 -1.57512 -18.7078
LeftUpLeg  -23.9528 4.75449 -0.115908
LeftLeg  51.3055 4.08289 5.92394
LeftFoot  -2.94323 0.256762 -3.26188
LeftToes  -1.16419e-010 -9.34044e-011 -2.32061e-011
86
root  35.8085 39.9 -4.84913 -46.0401 -88.7344 46.4181
RightUpLeg  2.07 -8.24042 -1.948
RightLeg  11.1789 -2.33613 4.1866
RightFoot  -14.7896 -0.131104 -1.03687
RightToes  -1.16417e-010 0 -3.6325e-017
Spine  8.11953 2.05149 11.4992
Spine1  5.02529 4.79176 -8.25822
HEad  -18.4024 -1.88351 -3.98115
LeftShoulder1  9.10569 -12.7142 -49.0146
LeftArm  -6.66579 33.1918 -25.3322
LeftForeArm  34.7676 -64.0227 -19.9476
LeftHand  -0.244104 0.0205437 5.32207
RightShoulder  5.99816 9.25089 40.8395
RightArm  -1.86039 -6.00878 33.4408
RightForeArm  13.007 68.3069 28.941
RightHand  -0.327059 -3.28024 -17.5062
LeftUpLeg  -25.1787 6.20789 -2.12385
LeftLeg  42.6928 3.82797 4.19967
LeftFoot  -5.02603 0.202307 -3.10645
LeftToes  -1.16419e-010 -9.34044e-011 -2.32061e-011
